<?xml version="1.0" standalone="yes"?>
<svg xmlns="http://www.w3.org/2000/svg" width="768" height="768">
<path style="fill:#010101; stroke:none;" d="M0 0L0 768L768 768L768 0L0 0z"/>
<path style="fill:#30618a; stroke:none;" d="M202 177C166.763 177 124.477 169.715 96 195.174C79.3922 210.021 70.2718 231.594 62.5764 252C41.0663 309.038 41.002 367.215 55.6265 426C63.6465 458.238 77.2972 495.045 110 509.561C136.628 521.38 168.585 517 197 517C202.661 517 222.297 520.037 225.972 515.397C228.544 512.15 227 503.929 227 500L227 460C227 420.257 241.333 389.058 278 369.309C296.975 359.089 317.142 360 338 360L424 360C440.458 360 458.116 362 474 356.971C483.07 354.1 491.239 349.74 499 344.279C556.728 303.663 542 227.288 542 166C542 134.48 546.757 100.113 527.254 73C510.092 49.1411 481.48 36.1805 454 28.2909C397.092 11.9525 334.645 13.0497 279 34.1921C255.024 43.302 229.307 55.7629 213.757 77C194.162 103.762 202 145.601 202 177z"/>
<path style="fill:#6290b6; stroke:none;" d="M228 177L296 177L357 177C365.513 177 376.726 175.062 384.941 177.318C391.443 179.103 391.443 201.897 384.941 203.682C378.721 205.39 370.434 204 364 204C348.603 204 333.337 203.711 318 203.039C276.509 201.223 234.536 203 193 203C170.996 203 139.254 197.31 120 210.105C100.716 222.92 91.729 248.022 84.6674 269C68.3175 317.572 69.3564 363.306 80 413C84.7974 435.398 91.9919 462.098 110.004 477.7C132.858 497.496 171.881 490 200 490C200 467.092 197.567 442.294 203.745 420C215.096 379.043 250.693 345.399 292 335.887C310.816 331.555 330.827 333 350 333L425 333C438.648 333 453.776 334.881 467 331.09C489.553 324.625 512.264 299.847 514.826 276C519.51 232.416 515 185.861 515 142C515 120.651 516.987 99.6499 500.96 83.0038C484.648 66.0627 461.302 57.7021 439 52.1265C392.663 40.5422 346.868 41.9899 301 55.1412C277.186 61.9692 249.7 73.1703 234.789 94C227.504 104.176 228 116.081 228 128L228 177z"/>
<path style="fill:#ece5b5; stroke:none;" d="M283 79.5293C246.823 87.8779 261.994 143.736 298 135.471C334.199 127.161 319.154 71.1862 283 79.5293z"/>
<path style="fill:#30618a; stroke:none;" d="M488 193C429.529 242.836 353.432 232.458 283 239.17C219.355 245.235 161.03 271.841 111 310.885C107.093 313.934 101.371 317.562 99.0278 322.039C95.4632 328.851 96.988 340.512 97 348C97.0406 373.223 102.533 399.879 109.721 424C112.964 434.886 117.068 448.906 126.093 456.471C139.039 467.321 158.37 464 174 464C174 442.805 174.66 422.164 182.053 402C187.944 385.934 196.72 370.973 207.87 358C228.86 333.576 257.271 315.833 289 309.449C324.967 302.213 365.415 307 402 307C419.607 307 441.981 310.682 459 306.073C494.559 296.442 489 251.759 489 224C489 214.94 491.507 201.357 488 193z"/>
<path style="fill:#e2bc2a; stroke:none;" d="M542 203C542 229.221 546.079 259.354 540.335 285C537.727 296.645 531.357 308.418 524.36 318C512.134 334.741 495.78 349.238 476 356.302C460.19 361.948 442.537 361 426 361C398.281 361 370.722 360 343 360C308.205 360 278.248 361.83 252.039 388.039C223.881 416.198 227 450.355 227 487C227 500.098 224.857 513.19 225.004 526C225.466 566.327 217.166 619.132 245.3 652C263.156 672.861 290.164 684.243 316 691.424C367.853 705.838 419.191 704.569 471 690.884C499.583 683.334 531.544 670.012 550.112 646C572.514 617.029 566 577.379 566 543C599.015 543 640.273 550.329 668 528.482C688.124 512.626 699.359 486.687 707.333 463C725.507 409.006 726.19 357.5 714.21 302C708.322 274.723 699.217 243.785 677.961 224.286C643.204 192.402 585.417 203 542 203z"/>
<path style="fill:#ece5b5; stroke:none;" d="M649 207L650 208L649 207M675 222L676 223L675 222M682 229L683 230L682 229M568 230C568 249.29 569.461 270.114 565.113 289C555.096 332.501 520.194 370.385 477 382.572C456.806 388.269 434.766 386 414 386L342 386C327.861 386 312.807 384.531 299 388.156C272.576 395.093 254.763 418.202 252.17 445C248.069 487.38 252.997 531.547 253 574C253.001 596.65 250.043 619.218 267.04 636.999C283.31 654.019 306.67 662.291 329 667.873C374.185 679.17 418.106 677.743 463 665.884C487.208 659.49 515.77 648.977 531.073 628C547.044 606.105 540 568.645 540 543L379 543L379 516C444.057 516 508.975 517 574 517C597.887 517 632.432 523.382 652 506.699C667.941 493.109 676.176 471.401 682.667 452C698.902 403.472 699.95 355.74 687.87 306C682.297 283.051 675.506 256.134 656 240.819C633.174 222.899 595.205 230 568 230z"/>
<path style="fill:#6290b6; stroke:none;" d="M689 238L690 239L689 238z"/>
<path style="fill:#ece5b5; stroke:none;" d="M701 260L702 261L701 260z"/>
<path style="fill:#6290b6; stroke:none;" d="M541 270L541 279L542 279L541 270M540.333 283.667L540.667 284.333L540.333 283.667z"/>
<path style="fill:#ece5b5; stroke:none;" d="M709 283L710 284L709 283z"/>
<path style="fill:#6290b6; stroke:none;" d="M539.333 287.667L539.667 288.333L539.333 287.667M538 291L539 292L538 291M537 294L538 295L537 294M536 296L537 297L536 296M535 298L536 299L535 298M529 310L530 311L529 310M526 315L527 316L526 315M523 319L524 320L523 319M520 323L521 324L520 323M514 330L515 331L514 330M513 331L514 332L513 331M512 332L513 333L512 332M511 333L512 334L511 333M510 334L511 335L510 334M509 335L510 336L509 335M508 336L509 337L508 336M720 336L721 337L720 336M502 341L503 342L502 341M498 344L499 345L498 344M495 346L496 347L495 346M492 348L493 349L492 348M480 354L481 355L480 354M722 354L723 355L722 354M478 355L479 356L478 355M475 356L476 357L475 356M472 357L473 358L472 357M468 358L469 359L468 358M463 359L464 360L463 359M306 360L306 361L311 361L306 360M385 360L385 361L452 361L431 360L385 360M299 361L300 362L299 361M295 362L296 363L295 362M291 363L292 364L291 363M288 364L289 365L288 364M286 365L287 366L286 365M283 366L284 367L283 366M281 367L282 368L281 367M279 368L280 369L279 368M277 369L278 370L277 369M275 370L276 371L275 370M272 372L273 373L272 372M270 373L271 374L270 373z"/>
<path style="fill:#e2bc2a; stroke:none;" d="M670 373C631.286 404.202 583.799 416.569 535 419.91C507.683 421.781 480.236 419.896 453 423.285C392.278 430.84 334.21 456.147 287 495.084C275.542 504.535 278 515.223 278 529C278 547.379 278.537 565.689 278.985 584C279.397 600.785 277.595 614.741 293 625.56C306.457 635.011 323.232 639.932 339 643.873C382.097 654.645 424.881 651.7 467 638L467 637C462.489 634.853 458.775 632.042 455.764 627.996C431.997 596.063 485.425 561.707 504.004 598C506.632 603.135 506.996 608.356 507 614C518.693 604.948 514 582.277 514 569L353 569L353 490L546 490C565.057 490 583.952 491 603 491C611.798 491 621.587 492.268 630 489.301C642 485.069 646.172 475.062 650.6 464C658.715 443.73 666.114 422.701 669.13 401C670.252 392.931 673.224 380.684 670 373z"/>
<path style="fill:#6290b6; stroke:none;" d="M267 375L268 376L267 375M266 376L267 377L266 376M263 378L264 379L263 378M259 381L260 382L259 381M258 382L259 383L258 382M257 383L258 384L257 383M247 393L248 394L247 393M246 394L247 395L246 394M245 395L246 396L245 395z"/>
<path style="fill:#ece5b5; stroke:none;" d="M722 397L723 398L722 397z"/>
<path style="fill:#6290b6; stroke:none;" d="M242 399L243 400L242 399M240 402L241 403L240 402M238 405L239 406L238 405M236 408L237 409L236 408M235 410L236 411L235 410M234 412L235 413L234 412M233 414L234 415L233 414M231 419L232 420L231 419M230 422L231 423L230 422M229 425L230 426L229 425M228 429L229 430L228 429M227.333 434.667L227.667 435.333L227.333 434.667z"/>
<path style="fill:#ece5b5; stroke:none;" d="M710 453L711 454L710 453M702 475L703 476L702 475M695 491L696 492L695 491z"/>
<path style="fill:#6290b6; stroke:none;" d="M686 507L687 508L686 507M681 514L682 515L681 514M226 516L227 517L226 516M663 531L664 532L663 531M225.333 532.667L225.667 533.333L225.333 532.667z"/>
<path style="fill:#ece5b5; stroke:none;" d="M225.333 534.667L225.667 535.333L225.333 534.667z"/>
<path style="fill:#6290b6; stroke:none;" d="M652 537L653 538L652 537M226 606L226 609L227 609L226 606M565.333 608.667L565.667 609.333L565.333 608.667z"/>
<path style="fill:#30618a; stroke:none;" d="M226 609L226 612L227 612L226 609M565.333 610.667L565.667 611.333L565.333 610.667z"/>
<path style="fill:#6290b6; stroke:none;" d="M227 615L228 616L227 615M564 615L565 616L564 615z"/>
<path style="fill:#30618a; stroke:none;" d="M227 616L228 617L227 616M564 616L565 617L564 616z"/>
<path style="fill:#6290b6; stroke:none;" d="M228 619L229 620L228 619M563 619L564 620L563 619z"/>
<path style="fill:#30618a; stroke:none;" d="M228.333 620.667L228.667 621.333L228.333 620.667M563 620L564 621L563 620z"/>
<path style="fill:#6290b6; stroke:none;" d="M229 623L230 624L229 623z"/>
<path style="fill:#30618a; stroke:none;" d="M562 623L563 624L562 623M229 624L230 625L229 624z"/>
<path style="fill:#6290b6; stroke:none;" d="M230 626L231 627L230 626z"/>
<path style="fill:#30618a; stroke:none;" d="M561 626L562 627L561 626M230 627L231 628L230 627z"/>
<path style="fill:#6290b6; stroke:none;" d="M560 628L561 629L560 628z"/>
<path style="fill:#30618a; stroke:none;" d="M231 629L232 630L231 629z"/>
<path style="fill:#6290b6; stroke:none;" d="M559 630L560 631L559 630M232 631L233 632L232 631z"/>
<path style="fill:#30618a; stroke:none;" d="M559 631L560 632L559 631M232 632L233 633L232 632M558 633L559 634L558 633M233 634L234 635L233 634z"/>
<path style="fill:#6290b6; stroke:none;" d="M557 634L558 635L557 634z"/>
<path style="fill:#30618a; stroke:none;" d="M234 636L235 637L234 636z"/>
<path style="fill:#6290b6; stroke:none;" d="M556 636L557 637L556 636M235 637L236 638L235 637z"/>
<path style="fill:#30618a; stroke:none;" d="M555 638L556 639L555 638z"/>
<path style="fill:#6290b6; stroke:none;" d="M236 639L237 640L236 639z"/>
<path style="fill:#30618a; stroke:none;" d="M237 641L238 642L237 641M553 641L554 642L553 641z"/>
<path style="fill:#6290b6; stroke:none;" d="M238 642L239 643L238 642M552 642L553 643L552 642z"/>
<path style="fill:#30618a; stroke:none;" d="M239 644L240 645L239 644M551 644L552 645L551 644z"/>
<path style="fill:#6290b6; stroke:none;" d="M240 645L241 646L240 645z"/>
<path style="fill:#30618a; stroke:none;" d="M550 645L551 646L550 645z"/>
<path style="fill:#6290b6; stroke:none;" d="M549 646L550 647L549 646z"/>
<path style="fill:#30618a; stroke:none;" d="M241 647L242 648L241 647M242 648L243 649L242 648z"/>
<path style="fill:#6290b6; stroke:none;" d="M243 649L244 650L243 649z"/>
<path style="fill:#30618a; stroke:none;" d="M546 650L547 651L546 650M545 651L546 652L545 651M544 652L545 653L544 652M246 653L247 654L246 653M543 653L544 654L543 653M247 654L248 655L247 654M542 654L543 655L542 654M248 655L249 656L248 655M541 655L542 656L541 655M249 656L250 657L249 656M540 656L541 657L540 656M250 657L251 658L250 657M251 658L252 659L251 658M252 659L253 660L252 659z"/>
<path style="fill:#6290b6; stroke:none;" d="M536 659L537 660L536 659z"/>
<path style="fill:#30618a; stroke:none;" d="M535 660L536 661L535 660M534 661L535 662L534 661z"/>
<path style="fill:#6290b6; stroke:none;" d="M256 662L257 663L256 662z"/>
<path style="fill:#30618a; stroke:none;" d="M257 663L258 664L257 663z"/>
<path style="fill:#6290b6; stroke:none;" d="M531 663L532 664L531 663z"/>
<path style="fill:#30618a; stroke:none;" d="M258 664L259 665L258 664M530 664L531 665L530 664z"/>
<path style="fill:#6290b6; stroke:none;" d="M528 665L529 666L528 665M261 666L262 667L261 666z"/>
<path style="fill:#30618a; stroke:none;" d="M527 666L528 667L527 666M262 667L263 668L262 667z"/>
<path style="fill:#6290b6; stroke:none;" d="M525 667L526 668L525 667M264 668L265 669L264 668z"/>
<path style="fill:#30618a; stroke:none;" d="M524 668L525 669L524 668M265 669L266 670L265 669z"/>
<path style="fill:#6290b6; stroke:none;" d="M522 669L523 670L522 669z"/>
<path style="fill:#30618a; stroke:none;" d="M521 670L522 671L521 670M268 671L269 672L268 671M519 671L520 672L519 671z"/>
<path style="fill:#6290b6; stroke:none;" d="M270 672L271 673L270 672z"/>
<path style="fill:#30618a; stroke:none;" d="M517 672L518 673L517 672M271 673L272 674L271 673z"/>
<path style="fill:#6290b6; stroke:none;" d="M515 673L516 674L515 673z"/>
<path style="fill:#30618a; stroke:none;" d="M273 674L274 675L273 674z"/>
<path style="fill:#6290b6; stroke:none;" d="M513 674L514 675L513 674z"/>
<path style="fill:#30618a; stroke:none;" d="M275 675L276 676L275 675z"/>
<path style="fill:#6290b6; stroke:none;" d="M511 675L512 676L511 675M277 676L278 677L277 676M509 676L510 677L509 676z"/>
<path style="fill:#30618a; stroke:none;" d="M510 676L511 677L510 676z"/>
<path style="fill:#6290b6; stroke:none;" d="M279 677L280 678L279 677M507 677L508 678L507 677z"/>
<path style="fill:#30618a; stroke:none;" d="M508 677L509 678L508 677M280 678L281 679L280 678z"/>
<path style="fill:#6290b6; stroke:none;" d="M505 678L506 679L505 678z"/>
<path style="fill:#30618a; stroke:none;" d="M282 679L283 680L282 679z"/>
<path style="fill:#6290b6; stroke:none;" d="M283 679L284 680L283 679z"/>
<path style="fill:#30618a; stroke:none;" d="M503 679L504 680L503 679z"/>
<path style="fill:#6290b6; stroke:none;" d="M285 680L286 681L285 680z"/>
<path style="fill:#30618a; stroke:none;" d="M501 680L502 681L501 680M287 681L288 682L287 681z"/>
<path style="fill:#6290b6; stroke:none;" d="M498 681L499 682L498 681z"/>
<path style="fill:#30618a; stroke:none;" d="M289 682L290 683L289 682M496 682L497 683L496 682M291 683L292 684L291 683z"/>
<path style="fill:#6290b6; stroke:none;" d="M292 683L293 684L292 683M493 683L494 684L493 683z"/>
<path style="fill:#30618a; stroke:none;" d="M494 683L495 684L494 683M294 684L295 685L294 684M491 684L492 685L491 684M296 685L297 686L296 685z"/>
<path style="fill:#6290b6; stroke:none;" d="M297 685L298 686L297 685z"/>
<path style="fill:#30618a; stroke:none;" d="M488 685L489 686L488 685M299 686L300 687L299 686M485.667 686.333L486.333 686.667L485.667 686.333M302 687L303 688L302 687M482.667 687.333L483.333 687.667L482.667 687.333M305 688L306 689L305 688M479.667 688.333L480.333 688.667L479.667 688.333M308 689L309 690L308 689M476 689L477 690L476 689M311 690L312 691L311 690z"/>
<path style="fill:#6290b6; stroke:none;" d="M312 690L313 691L312 690M472 690L473 691L472 690z"/>
<path style="fill:#30618a; stroke:none;" d="M473 690L474 691L473 690M315 691L316 692L315 691z"/>
<path style="fill:#6290b6; stroke:none;" d="M316 691L317 692L316 691M468 691L469 692L468 691z"/>
<path style="fill:#30618a; stroke:none;" d="M469 691L470 692L469 691M318 692L319 693L318 692z"/>
<path style="fill:#6290b6; stroke:none;" d="M319 692L320 693L319 692z"/>
<path style="fill:#30618a; stroke:none;" d="M465.667 692.333L466.333 692.667L465.667 692.333M322 693L323 694L322 693z"/>
<path style="fill:#6290b6; stroke:none;" d="M323 693L324 694L323 693M461 693L462 694L461 693z"/>
<path style="fill:#30618a; stroke:none;" d="M462 693L463 694L462 693M326 694L327 695L326 694z"/>
<path style="fill:#6290b6; stroke:none;" d="M327 694L328 695L327 694z"/>
<path style="fill:#30618a; stroke:none;" d="M457.667 694.333L458.333 694.667L457.667 694.333M330 695L331 696L330 695z"/>
<path style="fill:#6290b6; stroke:none;" d="M331 695L332 696L331 695M453 695L454 696L453 695z"/>
<path style="fill:#30618a; stroke:none;" d="M454 695L455 696L454 695M334.667 696.333L335.333 696.667L334.667 696.333z"/>
<path style="fill:#6290b6; stroke:none;" d="M336 696L337 697L336 696M448 696L449 697L448 696z"/>
<path style="fill:#30618a; stroke:none;" d="M449.667 696.333L450.333 696.667L449.667 696.333M339 697L340 698L339 697z"/>
<path style="fill:#6290b6; stroke:none;" d="M340 697L341 698L340 697M443 697L444 698L443 697z"/>
<path style="fill:#30618a; stroke:none;" d="M444.667 697.333L445.333 697.667L444.667 697.333M344.667 698.333L345.333 698.667L344.667 698.333z"/>
<path style="fill:#6290b6; stroke:none;" d="M346 698L347 699L346 698M438 698L439 699L438 698z"/>
<path style="fill:#30618a; stroke:none;" d="M439 698L440 699L439 698M349 699L349 700L352 700L349 699z"/>
<path style="fill:#6290b6; stroke:none;" d="M352 699L353 700L352 699M431.667 699.333L432.333 699.667L431.667 699.333z"/>
<path style="fill:#30618a; stroke:none;" d="M433.667 699.333L434.333 699.667L433.667 699.333M356 700L356 701L359 701L356 700z"/>
<path style="fill:#6290b6; stroke:none;" d="M359 700L360 701L359 700M424 700L425 701L424 700z"/>
<path style="fill:#30618a; stroke:none;" d="M425 700L425 701L428 701L425 700M364 701L364 702L368 702L364 701z"/>
<path style="fill:#6290b6; stroke:none;" d="M368 701L369 702L368 701M414 701L414 702L417 702L414 701z"/>
<path style="fill:#30618a; stroke:none;" d="M417 701L417 702L420 702L417 701M376 702L376 703L383 703L376 702z"/>
<path style="fill:#6290b6; stroke:none;" d="M383 702L383 703L402 703L383 702z"/>
<path style="fill:#30618a; stroke:none;" d="M402 702L402 703L409 703L402 702z"/>
</svg>
